<?xml version="1.0" encoding="UTF-8" standalone="no"?>
<svg
   width="96"
   height="96"
   version="1"
   id="svg3228"
   xml:space="preserve"
   xmlns="http://www.w3.org/2000/svg"
   xmlns:svg="http://www.w3.org/2000/svg"><defs
     id="defs3232" /><rect
     style="fill:#813c51;fill-opacity:1;fill-rule:evenodd;stroke:none;stroke-width:0;stroke-linecap:square;stroke-miterlimit:3;paint-order:markers fill stroke"
     id="rect3427-5-9"
     width="16.622223"
     height="16.622223"
     x="56.866665"
     y="48.244446" /><path
     style="fill:#e3e3e3;fill-opacity:1;stroke-width:1"
     d="M 90.11111,54.288888 H 67.066666 c -2.293867,0 -4.155555,1.861689 -4.155555,4.155556 v 23.044444 z"
     id="path3218" /><path
     style="opacity:0.2;fill:#ffffff;stroke-width:1"
     d="m 67.066666,54.288888 c -2.293867,0 -4.155555,1.861689 -4.155555,4.155556 v 1.511111 c 0,-2.293867 1.861688,-4.155556 4.155555,-4.155556 h 21.533333 l 1.511111,-1.511111 z"
     id="path3220" /><path
     style="opacity:0.2;stroke-width:1"
     d="m 90.11111,54.288888 -27.199999,27.2 H 11.533333 L 7,76.955555 v 1.511111 c 0,3.022222 1.5111111,4.533333 4.533333,4.533333 h 54.4 L 90.11111,58.822222 Z"
     id="path3222" /><rect
     style="fill:#9b6a8f;fill-opacity:1;fill-rule:evenodd;stroke:none;stroke-width:0;stroke-linecap:square;stroke-miterlimit:3;paint-order:markers fill stroke"
     id="rect3427-6"
     width="16.622223"
     height="16.622223"
     x="23.622223"
     y="15" /><rect
     style="fill:#c6569f;fill-opacity:1;fill-rule:evenodd;stroke:none;stroke-width:0;stroke-linecap:square;stroke-miterlimit:3;paint-order:markers fill stroke"
     id="rect3427-5"
     width="16.622223"
     height="16.622223"
     x="40.244446"
     y="15" /><rect
     style="fill:#956d85;fill-opacity:1;fill-rule:evenodd;stroke:none;stroke-width:0;stroke-linecap:square;stroke-miterlimit:3;paint-order:markers fill stroke"
     id="rect3427-69"
     width="16.622223"
     height="16.622223"
     x="56.866665"
     y="15" /><rect
     style="fill:#c6569f;fill-opacity:1;fill-rule:evenodd;stroke:none;stroke-width:0;stroke-linecap:square;stroke-miterlimit:3;paint-order:markers fill stroke"
     id="rect3427-8"
     width="16.622223"
     height="16.622223"
     x="7"
     y="31.622221" /><rect
     style="fill:#704b69;fill-opacity:1;fill-rule:evenodd;stroke:none;stroke-width:0;stroke-linecap:square;stroke-miterlimit:3;paint-order:markers fill stroke"
     id="rect3427-6-3"
     width="16.622223"
     height="16.622223"
     x="23.622223"
     y="31.622221" /><rect
     style="fill:#704b69;fill-opacity:1;fill-rule:evenodd;stroke:none;stroke-width:0;stroke-linecap:square;stroke-miterlimit:3;paint-order:markers fill stroke"
     id="rect3427-6-3-9"
     width="16.622223"
     height="6.0444446"
     x="73.488892"
     y="48.244446" /><rect
     style="fill:#905e99;fill-opacity:1;fill-rule:evenodd;stroke:none;stroke-width:0;stroke-linecap:square;stroke-miterlimit:3;paint-order:markers fill stroke"
     id="rect3427-5-4"
     width="16.622223"
     height="16.622223"
     x="40.244446"
     y="31.622221" /><rect
     style="fill:#9e576f;fill-opacity:1;fill-rule:evenodd;stroke:none;stroke-width:0;stroke-linecap:square;stroke-miterlimit:3;paint-order:markers fill stroke"
     id="rect3427-36"
     width="16.622223"
     height="16.622223"
     x="7"
     y="48.244446" /><rect
     style="fill:#806496;fill-opacity:1;fill-rule:evenodd;stroke:none;stroke-width:0;stroke-linecap:square;stroke-miterlimit:3;paint-order:markers fill stroke"
     id="rect3427-6-4"
     width="16.622223"
     height="16.622223"
     x="23.622223"
     y="48.244446" /><rect
     style="fill:#b06c98;fill-opacity:1;fill-rule:evenodd;stroke:none;stroke-width:0;stroke-linecap:square;stroke-miterlimit:3;paint-order:markers fill stroke"
     id="rect3427-5-8"
     width="16.622223"
     height="16.622223"
     x="40.244446"
     y="48.244446" /><rect
     style="fill:#813c51;fill-opacity:1;fill-rule:evenodd;stroke:none;stroke-width:0;stroke-linecap:square;stroke-miterlimit:3;paint-order:markers fill stroke"
     id="rect3427-6-3-0"
     width="16.622223"
     height="16.622223"
     x="23.622223"
     y="64.866669" /><rect
     style="fill:#de8ccf;fill-opacity:1;fill-rule:evenodd;stroke:none;stroke-width:0;stroke-linecap:square;stroke-miterlimit:3;paint-order:markers fill stroke"
     id="rect3427-5-4-9"
     width="16.622223"
     height="16.622223"
     x="40.244446"
     y="64.866669" /><rect
     style="fill:#d9b998;fill-opacity:1;fill-rule:evenodd;stroke:none;stroke-width:0;stroke-linecap:square;stroke-miterlimit:3;paint-order:markers fill stroke"
     id="rect3427-69-8"
     width="16.622223"
     height="16.622223"
     x="56.866665"
     y="31.622221" /><rect
     style="fill:#905e99;fill-opacity:1;fill-rule:evenodd;stroke:none;stroke-width:0;stroke-linecap:square;stroke-miterlimit:3;paint-order:markers fill stroke"
     id="rect3427-69-8-0"
     width="6.0444446"
     height="16.622223"
     x="56.866665"
     y="64.866669" /><rect
     style="fill:#b06c98;fill-opacity:1;fill-rule:evenodd;stroke:none;stroke-width:0;stroke-linecap:square;stroke-miterlimit:3;paint-order:markers fill stroke"
     id="rect3427-3-3"
     width="16.622223"
     height="16.622223"
     x="73.488892"
     y="31.622221" /><path
     style="display:inline;fill:#d9b998;fill-opacity:1;fill-rule:evenodd;stroke:none;stroke-width:0;stroke-linecap:square;stroke-miterlimit:3;paint-order:markers fill stroke"
     d="M 7,64.866666 H 23.622222 V 81.488888 H 11.533333 C 8.5111111,81.488888 7,79.977777 7,76.955555 V 64.866666"
     id="path16653" /><path
     style="display:inline;fill:#b06c98;fill-opacity:1;fill-rule:evenodd;stroke:none;stroke-width:0;stroke-linecap:square;stroke-miterlimit:3;paint-order:markers fill stroke"
     d="M 7,31.622222 H 23.622222 V 15 H 11.533333 C 8.5111111,15 7,16.511111 7,19.533333 v 12.088889"
     id="path16653-0" /><path
     style="display:inline;fill:#905e99;fill-opacity:1;fill-rule:evenodd;stroke:none;stroke-width:0;stroke-linecap:square;stroke-miterlimit:3;paint-order:markers fill stroke"
     d="M 90.11111,31.622222 H 73.488888 V 15 h 12.088889 c 3.022222,0 4.533333,1.511111 4.533333,4.533333 v 12.088889"
     id="path16653-0-4" /><path
     style="opacity:0.2;fill:#ffffff;fill-opacity:1;stroke-width:1"
     d="M 11.533333,15 C 8.5111111,15 7,16.511111 7,19.533333 v 1.511111 c 0,-3.022222 1.5111111,-4.533333 4.533333,-4.533333 h 74.044444 c 3.022222,0 4.533333,1.511111 4.533333,4.533333 V 19.533333 C 90.11111,16.511111 88.599999,15 85.577777,15 Z"
     id="path3214" /></svg>
