<?xml version="1.0" encoding="UTF-8" standalone="no"?>
<svg
   width="64"
   height="64"
   version="1"
   id="svg3228"
   xml:space="preserve"
   xmlns="http://www.w3.org/2000/svg"
   xmlns:svg="http://www.w3.org/2000/svg"><defs
     id="defs3232" /><rect
     style="fill:#813c51;fill-opacity:1;fill-rule:evenodd;stroke:none;stroke-width:0;stroke-linecap:square;stroke-miterlimit:3;paint-order:markers fill stroke"
     id="rect3427-5-9"
     width="11"
     height="11"
     x="38"
     y="32" /><path
     style="fill:#e3e3e3;fill-opacity:1"
     d="M 60,36 H 44.75 C 43.232,36 42,37.232 42,38.75 V 54 Z"
     id="path3218" /><path
     style="opacity:0.2;fill:#ffffff"
     d="M 44.75,36 C 43.232,36 42,37.232 42,38.75 v 1 C 42,38.232 43.232,37 44.75,37 H 59 l 1,-1 z"
     id="path3220" /><path
     style="opacity:0.2"
     d="M 60,36 42,54 H 8 L 5,51 v 1 c 0,2 1,3 3,3 H 44 L 60,39 Z"
     id="path3222" /><rect
     style="fill:#9b6a8f;fill-opacity:1;fill-rule:evenodd;stroke:none;stroke-width:0;stroke-linecap:square;stroke-miterlimit:3;paint-order:markers fill stroke"
     id="rect3427-6"
     width="11"
     height="11"
     x="16"
     y="10" /><rect
     style="fill:#c6569f;fill-opacity:1;fill-rule:evenodd;stroke:none;stroke-width:0;stroke-linecap:square;stroke-miterlimit:3;paint-order:markers fill stroke"
     id="rect3427-5"
     width="11"
     height="11"
     x="27"
     y="10" /><rect
     style="fill:#956d85;fill-opacity:1;fill-rule:evenodd;stroke:none;stroke-width:0;stroke-linecap:square;stroke-miterlimit:3;paint-order:markers fill stroke"
     id="rect3427-69"
     width="11"
     height="11"
     x="38"
     y="10" /><rect
     style="fill:#c6569f;fill-opacity:1;fill-rule:evenodd;stroke:none;stroke-width:0;stroke-linecap:square;stroke-miterlimit:3;paint-order:markers fill stroke"
     id="rect3427-8"
     width="11"
     height="11"
     x="5"
     y="21" /><rect
     style="fill:#704b69;fill-opacity:1;fill-rule:evenodd;stroke:none;stroke-width:0;stroke-linecap:square;stroke-miterlimit:3;paint-order:markers fill stroke"
     id="rect3427-6-3"
     width="11"
     height="11"
     x="16"
     y="21" /><rect
     style="fill:#704b69;fill-opacity:1;fill-rule:evenodd;stroke:none;stroke-width:0;stroke-linecap:square;stroke-miterlimit:3;paint-order:markers fill stroke"
     id="rect3427-6-3-9"
     width="11"
     height="4"
     x="49"
     y="32" /><rect
     style="fill:#905e99;fill-opacity:1;fill-rule:evenodd;stroke:none;stroke-width:0;stroke-linecap:square;stroke-miterlimit:3;paint-order:markers fill stroke"
     id="rect3427-5-4"
     width="11"
     height="11"
     x="27"
     y="21" /><rect
     style="fill:#9e576f;fill-opacity:1;fill-rule:evenodd;stroke:none;stroke-width:0;stroke-linecap:square;stroke-miterlimit:3;paint-order:markers fill stroke"
     id="rect3427-36"
     width="11"
     height="11"
     x="5"
     y="32" /><rect
     style="fill:#806496;fill-opacity:1;fill-rule:evenodd;stroke:none;stroke-width:0;stroke-linecap:square;stroke-miterlimit:3;paint-order:markers fill stroke"
     id="rect3427-6-4"
     width="11"
     height="11"
     x="16"
     y="32" /><rect
     style="fill:#b06c98;fill-opacity:1;fill-rule:evenodd;stroke:none;stroke-width:0;stroke-linecap:square;stroke-miterlimit:3;paint-order:markers fill stroke"
     id="rect3427-5-8"
     width="11"
     height="11"
     x="27"
     y="32" /><rect
     style="fill:#813c51;fill-opacity:1;fill-rule:evenodd;stroke:none;stroke-width:0;stroke-linecap:square;stroke-miterlimit:3;paint-order:markers fill stroke"
     id="rect3427-6-3-0"
     width="11"
     height="11"
     x="16"
     y="43" /><rect
     style="fill:#de8ccf;fill-opacity:1;fill-rule:evenodd;stroke:none;stroke-width:0;stroke-linecap:square;stroke-miterlimit:3;paint-order:markers fill stroke"
     id="rect3427-5-4-9"
     width="11"
     height="11"
     x="27"
     y="43" /><rect
     style="fill:#d9b998;fill-opacity:1;fill-rule:evenodd;stroke:none;stroke-width:0;stroke-linecap:square;stroke-miterlimit:3;paint-order:markers fill stroke"
     id="rect3427-69-8"
     width="11"
     height="11"
     x="38"
     y="21" /><rect
     style="fill:#905e99;fill-opacity:1;fill-rule:evenodd;stroke:none;stroke-width:0;stroke-linecap:square;stroke-miterlimit:3;paint-order:markers fill stroke"
     id="rect3427-69-8-0"
     width="4"
     height="11"
     x="38"
     y="43" /><rect
     style="fill:#b06c98;fill-opacity:1;fill-rule:evenodd;stroke:none;stroke-width:0;stroke-linecap:square;stroke-miterlimit:3;paint-order:markers fill stroke"
     id="rect3427-3-3"
     width="11"
     height="11"
     x="49"
     y="21" /><path
     style="display:inline;fill:#d9b998;fill-opacity:1;fill-rule:evenodd;stroke:none;stroke-width:0;stroke-linecap:square;stroke-miterlimit:3;paint-order:markers fill stroke"
     d="M 5,43 H 16 V 54 H 8 c -2,0 -3,-1 -3,-3 v -8"
     id="path16653" /><path
     style="display:inline;fill:#b06c98;fill-opacity:1;fill-rule:evenodd;stroke:none;stroke-width:0;stroke-linecap:square;stroke-miterlimit:3;paint-order:markers fill stroke"
     d="M 5,21 H 16 V 10 H 8 c -2,0 -3,1 -3,3 V 21"
     id="path16653-0" /><path
     style="display:inline;fill:#905e99;fill-opacity:1;fill-rule:evenodd;stroke:none;stroke-width:0;stroke-linecap:square;stroke-miterlimit:3;paint-order:markers fill stroke"
     d="M 60,21 H 49 V 10 h 8 c 2,0 3,1 3,3 V 21"
     id="path16653-0-4" /><path
     style="opacity:0.2;fill:#ffffff;fill-opacity:1;stroke-width:1"
     d="m 8,10 c -2,0 -3,1 -3,3 v 1 c 0,-2 1,-3 3,-3 h 49 c 2,0 3,1 3,3 v -1 c 0,-2 -1,-3 -3,-3 z"
     id="path3214" /></svg>
